<mxfile host="app.diagrams.net" modified="2023-04-27T10:26:38.082Z" agent="Mozilla/5.0 (Windows NT 10.0; Win64; x64) AppleWebKit/537.36 (KHTML, like Gecko) Chrome/112.0.0.0 Safari/537.36" etag="kBFSADdPR6s86Xqd2ziK" version="21.2.3" type="device">
  <diagram name="Страница 1" id="Kb5IOaVKP9OoDzqMWrbq">
    <mxGraphModel dx="1050" dy="581" grid="1" gridSize="10" guides="1" tooltips="1" connect="1" arrows="1" fold="1" page="1" pageScale="1" pageWidth="827" pageHeight="1169" math="0" shadow="0">
      <root>
        <mxCell id="0" />
        <mxCell id="1" parent="0" />
        <mxCell id="hK7ayWqrs4mGGQJBOrNQ-13" style="edgeStyle=orthogonalEdgeStyle;rounded=0;orthogonalLoop=1;jettySize=auto;html=1;" edge="1" parent="1" source="hK7ayWqrs4mGGQJBOrNQ-1" target="hK7ayWqrs4mGGQJBOrNQ-3">
          <mxGeometry relative="1" as="geometry" />
        </mxCell>
        <mxCell id="hK7ayWqrs4mGGQJBOrNQ-1" value="superchat" style="rounded=0;whiteSpace=wrap;html=1;" vertex="1" parent="1">
          <mxGeometry x="354" y="10" width="120" height="60" as="geometry" />
        </mxCell>
        <mxCell id="hK7ayWqrs4mGGQJBOrNQ-14" style="edgeStyle=orthogonalEdgeStyle;rounded=0;orthogonalLoop=1;jettySize=auto;html=1;" edge="1" parent="1" source="hK7ayWqrs4mGGQJBOrNQ-3" target="hK7ayWqrs4mGGQJBOrNQ-5">
          <mxGeometry relative="1" as="geometry" />
        </mxCell>
        <mxCell id="hK7ayWqrs4mGGQJBOrNQ-15" style="edgeStyle=orthogonalEdgeStyle;rounded=0;orthogonalLoop=1;jettySize=auto;html=1;entryX=0.5;entryY=0;entryDx=0;entryDy=0;" edge="1" parent="1" source="hK7ayWqrs4mGGQJBOrNQ-3" target="hK7ayWqrs4mGGQJBOrNQ-4">
          <mxGeometry relative="1" as="geometry" />
        </mxCell>
        <mxCell id="hK7ayWqrs4mGGQJBOrNQ-3" value="index&lt;br&gt;" style="rounded=0;whiteSpace=wrap;html=1;" vertex="1" parent="1">
          <mxGeometry x="354" y="90" width="120" height="60" as="geometry" />
        </mxCell>
        <mxCell id="hK7ayWqrs4mGGQJBOrNQ-16" style="edgeStyle=orthogonalEdgeStyle;rounded=0;orthogonalLoop=1;jettySize=auto;html=1;" edge="1" parent="1" source="hK7ayWqrs4mGGQJBOrNQ-4" target="hK7ayWqrs4mGGQJBOrNQ-6">
          <mxGeometry relative="1" as="geometry" />
        </mxCell>
        <mxCell id="hK7ayWqrs4mGGQJBOrNQ-25" style="edgeStyle=orthogonalEdgeStyle;rounded=0;orthogonalLoop=1;jettySize=auto;html=1;" edge="1" parent="1" source="hK7ayWqrs4mGGQJBOrNQ-4" target="hK7ayWqrs4mGGQJBOrNQ-7">
          <mxGeometry relative="1" as="geometry" />
        </mxCell>
        <mxCell id="hK7ayWqrs4mGGQJBOrNQ-4" value="login" style="rounded=0;whiteSpace=wrap;html=1;" vertex="1" parent="1">
          <mxGeometry x="50" y="190" width="120" height="60" as="geometry" />
        </mxCell>
        <mxCell id="hK7ayWqrs4mGGQJBOrNQ-17" style="edgeStyle=orthogonalEdgeStyle;rounded=0;orthogonalLoop=1;jettySize=auto;html=1;" edge="1" parent="1" source="hK7ayWqrs4mGGQJBOrNQ-5" target="hK7ayWqrs4mGGQJBOrNQ-6">
          <mxGeometry relative="1" as="geometry" />
        </mxCell>
        <mxCell id="hK7ayWqrs4mGGQJBOrNQ-5" value="register" style="rounded=0;whiteSpace=wrap;html=1;" vertex="1" parent="1">
          <mxGeometry x="354" y="190" width="120" height="60" as="geometry" />
        </mxCell>
        <mxCell id="hK7ayWqrs4mGGQJBOrNQ-18" style="edgeStyle=orthogonalEdgeStyle;rounded=0;orthogonalLoop=1;jettySize=auto;html=1;entryX=0;entryY=0.5;entryDx=0;entryDy=0;" edge="1" parent="1" source="hK7ayWqrs4mGGQJBOrNQ-6" target="hK7ayWqrs4mGGQJBOrNQ-4">
          <mxGeometry relative="1" as="geometry">
            <Array as="points">
              <mxPoint x="250" y="170" />
              <mxPoint x="20" y="170" />
              <mxPoint x="20" y="220" />
            </Array>
          </mxGeometry>
        </mxCell>
        <mxCell id="hK7ayWqrs4mGGQJBOrNQ-6" value="forget password" style="rounded=0;whiteSpace=wrap;html=1;" vertex="1" parent="1">
          <mxGeometry x="200" y="190" width="120" height="60" as="geometry" />
        </mxCell>
        <mxCell id="hK7ayWqrs4mGGQJBOrNQ-7" value="profile" style="rounded=0;whiteSpace=wrap;html=1;" vertex="1" parent="1">
          <mxGeometry x="50" y="280" width="120" height="60" as="geometry" />
        </mxCell>
        <mxCell id="hK7ayWqrs4mGGQJBOrNQ-8" value="chat" style="rounded=0;whiteSpace=wrap;html=1;" vertex="1" parent="1">
          <mxGeometry x="290" y="280" width="120" height="60" as="geometry" />
        </mxCell>
        <mxCell id="hK7ayWqrs4mGGQJBOrNQ-23" style="edgeStyle=orthogonalEdgeStyle;rounded=0;orthogonalLoop=1;jettySize=auto;html=1;" edge="1" parent="1" source="hK7ayWqrs4mGGQJBOrNQ-9" target="hK7ayWqrs4mGGQJBOrNQ-21">
          <mxGeometry relative="1" as="geometry" />
        </mxCell>
        <mxCell id="hK7ayWqrs4mGGQJBOrNQ-26" style="edgeStyle=orthogonalEdgeStyle;rounded=0;orthogonalLoop=1;jettySize=auto;html=1;" edge="1" parent="1" source="hK7ayWqrs4mGGQJBOrNQ-9" target="hK7ayWqrs4mGGQJBOrNQ-22">
          <mxGeometry relative="1" as="geometry" />
        </mxCell>
        <mxCell id="hK7ayWqrs4mGGQJBOrNQ-9" value="settings" style="rounded=0;whiteSpace=wrap;html=1;" vertex="1" parent="1">
          <mxGeometry x="410" y="280" width="120" height="60" as="geometry" />
        </mxCell>
        <mxCell id="hK7ayWqrs4mGGQJBOrNQ-11" value="Contact" style="rounded=0;whiteSpace=wrap;html=1;" vertex="1" parent="1">
          <mxGeometry x="170" y="280" width="120" height="60" as="geometry" />
        </mxCell>
        <mxCell id="hK7ayWqrs4mGGQJBOrNQ-21" value="change name password" style="rounded=0;whiteSpace=wrap;html=1;" vertex="1" parent="1">
          <mxGeometry x="354" y="390" width="120" height="60" as="geometry" />
        </mxCell>
        <mxCell id="hK7ayWqrs4mGGQJBOrNQ-22" value="delete profile" style="rounded=0;whiteSpace=wrap;html=1;" vertex="1" parent="1">
          <mxGeometry x="474" y="390" width="120" height="60" as="geometry" />
        </mxCell>
        <mxCell id="hK7ayWqrs4mGGQJBOrNQ-27" value="&lt;h1&gt;Users&amp;nbsp;&lt;/h1&gt;&lt;p&gt;id&lt;/p&gt;&lt;p&gt;firstname&lt;/p&gt;&lt;p&gt;lastname&lt;/p&gt;&lt;p&gt;age&lt;/p&gt;&lt;p&gt;email&lt;/p&gt;&lt;p&gt;password&lt;/p&gt;&lt;p&gt;status&lt;/p&gt;&lt;p&gt;user_type&lt;/p&gt;" style="text;html=1;strokeColor=none;fillColor=none;spacing=5;spacingTop=-20;whiteSpace=wrap;overflow=hidden;rounded=0;" vertex="1" parent="1">
          <mxGeometry x="750" y="10" width="90" height="250" as="geometry" />
        </mxCell>
        <mxCell id="hK7ayWqrs4mGGQJBOrNQ-29" value="&lt;h1&gt;massage&lt;/h1&gt;&lt;p&gt;id Int&amp;nbsp;&lt;/p&gt;&lt;p&gt;user id Int&lt;br&gt;&lt;/p&gt;&lt;p&gt;chat id int&lt;/p&gt;&lt;p&gt;massage string&lt;/p&gt;&lt;p&gt;&lt;span style=&quot;background-color: initial;&quot;&gt;date DateTime&lt;/span&gt;&lt;br&gt;&lt;/p&gt;&lt;p&gt;status string&lt;span style=&quot;background-color: initial;&quot;&gt;&lt;br&gt;&lt;/span&gt;&lt;/p&gt;&lt;p&gt;&lt;br&gt;&lt;/p&gt;" style="text;html=1;strokeColor=none;fillColor=none;spacing=5;spacingTop=-20;whiteSpace=wrap;overflow=hidden;rounded=0;" vertex="1" parent="1">
          <mxGeometry x="1050" y="10" width="130" height="250" as="geometry" />
        </mxCell>
        <mxCell id="hK7ayWqrs4mGGQJBOrNQ-30" value="&lt;h1&gt;chat&amp;nbsp;&lt;/h1&gt;&lt;p&gt;id&lt;/p&gt;&lt;p&gt;user_one&lt;/p&gt;&lt;p&gt;user_two&lt;br&gt;&lt;/p&gt;&lt;p&gt;date&lt;/p&gt;&lt;p&gt;status&lt;/p&gt;" style="text;html=1;strokeColor=none;fillColor=none;spacing=5;spacingTop=-20;whiteSpace=wrap;overflow=hidden;rounded=0;" vertex="1" parent="1">
          <mxGeometry x="890" y="10" width="140" height="250" as="geometry" />
        </mxCell>
      </root>
    </mxGraphModel>
  </diagram>
</mxfile>
